<svg width="256" height="256" viewBox="0 0 256 256" fill="none" xmlns="http://www.w3.org/2000/svg">
<path d="M190 0H66C29.5492 0 0 29.5492 0 66V190C0 226.451 29.5492 256 66 256H190C226.451 256 256 226.451 256 190V66C256 29.5492 226.451 0 190 0Z" fill="url(#paint0_linear_101_25)"/>
<path fill-rule="evenodd" clip-rule="evenodd" d="M36 49H90.7121L128 88.9232L165.288 49H220V201.124H166.448V190.465L128 229.058L89.5522 190.465V201.124H36V49ZM187.045 180.527H199.403V69.597H174.234L128 119.099L81.7659 69.597H56.597V180.527H68.9552V140.608L128 199.874L187.045 140.608V180.527ZM187.045 123.098V81.9552H179.602L128 137.204L76.3982 81.9552H68.9552V123.098L128 182.364L187.045 123.098Z" fill="white"/>
<defs>
<linearGradient id="paint0_linear_101_25" x1="47" y1="-2.57732e-06" x2="203.5" y2="256" gradientUnits="userSpaceOnUse">
<stop stop-color="#28AAE2"/>
<stop offset="1" stop-color="#1984B1"/>
</linearGradient>
</defs>
</svg>
